<svg version="1.1" id="Layer_1" xmlns="http://www.w3.org/2000/svg" xmlns:xlink="http://www.w3.org/1999/xlink" x="0" y="0" viewBox="0 0 220.8 269.3" xml:space="preserve"><style>.st2{fill:#94a5b3}</style><g transform="translate(-56.995 114.463)" id="Group_1595" opacity=".499"><defs><path id="SVGID_1_" d="M56-236h222.8v391.9H56z"/></defs><clipPath id="SVGID_00000080179132333338810200000015374127685967792308_"><use xlink:href="#SVGID_1_" overflow="visible"/></clipPath><g id="Group_1576" clip-path="url(#SVGID_00000080179132333338810200000015374127685967792308_)"><path id="Path_386" class="st2" d="M57-114.4l4.3 10.3.8 2 1-.4 4.2-1.6v-.1l1.9-5.2-1.9-.8-10.3-4.2z"/><path id="Path_387" class="st2" d="M85.2-114.5l-10.3 4.3-2 .8.4.9 1.6 4.3 5.2 2 .8-2 4.3-10.3z"/><path id="Path_388" class="st2" d="M62.1-98.5L57-86.2l10.3-4.3 2-.8-2-5.2h-.1l-5.1-2z"/><path id="Path_389" class="st2" d="M80.1-98.6l-5.2 2-2 5.2 12.3 5.1-5.1-12.3z"/><path id="Path_391" class="st2" d="M111.8-108.4l1.6 4.3-1.6-4.2v-.1z"/><path id="Path_392" class="st2" d="M95.5-114.4l4.3 10.3.8 2 1-.4 4.2-1.6v-.1l1.9-5.2-1.9-.8-10.3-4.2z"/><path id="Path_393" class="st2" d="M123.7-114.5l-10.3 4.3-2 .8.4.9v.1l1.6 4.2 5.2 2 .8-2 4.3-10.3z"/><path id="Path_394" class="st2" d="M100.6-98.5l-5.1 12.3 10.3-4.3 2-.8-2-5.2h-.1l-5.1-2z"/><path id="Path_395" class="st2" d="M118.6-98.6l-5.2 2-2 5.2 12.3 5.1-5.1-12.3z"/><path id="Path_397" class="st2" d="M134-114.4l4.3 10.3.8 2 1-.4 4.2-1.6v-.1l1.9-5.2-1.9-.8-10.3-4.2z"/><path id="Path_398" class="st2" d="M162.3-114.5l-10.3 4.3-2 .8.4.9 1.6 4.3 5.2 2 .8-2 4.3-10.3z"/><path id="Path_399" class="st2" d="M139.1-98.5L134-86.2l10.3-4.3 2-.8-2-5.2h-.1l-5.1-2z"/><path id="Path_400" class="st2" d="M157.1-98.6l-5.2 2-2 5.2 12.3 5.1-5.1-12.3z"/><path id="Path_402" class="st2" d="M188.8-108.4l1.6 4.3-1.6-4.2v-.1z"/><path id="Path_403" class="st2" d="M172.5-114.4l4.3 10.3.8 2 1-.4 4.2-1.6v-.1l1.9-5.2-1.9-.8-10.3-4.2z"/><path id="Path_404" class="st2" d="M200.8-114.5l-10.3 4.3-2 .8.4.9v.1l1.6 4.2 5.2 2 .8-2 4.3-10.3z"/><path id="Path_405" class="st2" d="M177.7-98.5l-5.1 12.3 10.3-4.3 2-.8-2-5.2h-.1l-5.1-2z"/><path id="Path_406" class="st2" d="M195.7-98.6l-5.2 2-2 5.2 12.3 5.1-5.1-12.3z"/><path id="Path_408" class="st2" d="M211.1-114.4l4.3 10.3.8 2 1-.4 4.2-1.6v-.1l1.9-5.2-1.9-.8-10.3-4.2z"/><path id="Path_409" class="st2" d="M239.3-114.5l-10.3 4.3-2 .8.4.9 1.6 4.3 5.2 2 .8-2 4.3-10.3z"/><path id="Path_410" class="st2" d="M216.2-98.5l-5.1 12.3 10.3-4.3 2-.8-2-5.2h-.1l-5.1-2z"/><path id="Path_411" class="st2" d="M234.2-98.6l-5.2 2-2 5.2 12.3 5.1-5.1-12.3z"/><path id="Path_413" class="st2" d="M265.9-108.4l1.6 4.3-1.6-4.2v-.1z"/><path id="Path_414" class="st2" d="M249.6-114.4l4.3 10.3.8 2 1-.4 4.2-1.6v-.1l1.9-5.2-1.9-.8-10.3-4.2z"/><path id="Path_415" class="st2" d="M277.8-114.5l-10.3 4.3-2 .8.4.9v.1l1.6 4.2 5.2 2 .8-2 4.3-10.3z"/><path id="Path_416" class="st2" d="M254.7-98.5l-5.1 12.3 10.3-4.3 2-.8-2-5.2h-.1l-5.1-2z"/><path id="Path_417" class="st2" d="M272.7-98.6l-5.2 2-2 5.2 12.3 5.1-5.1-12.3z"/><path id="Path_419" class="st2" d="M57-74.2l4.3 10.3.8 2 1-.4 4.2-1.6v-.1l1.9-5.2-1.9-.8L57-74.2z"/><path id="Path_420" class="st2" d="M85.2-74.3L74.9-70l-2 .8.4.9 1.6 4.3 5.2 2 .8-2 4.3-10.3z"/><path id="Path_421" class="st2" d="M62.1-58.3L57-46l10.3-4.3 2-.8-2-5.2h-.1l-5.1-2z"/><path id="Path_422" class="st2" d="M80.1-58.4l-5.2 2-2 5.2 12.3 5.1-5.1-12.3z"/><path id="Path_424" class="st2" d="M111.8-68.2l1.6 4.3-1.6-4.1v-.2z"/><path id="Path_425" class="st2" d="M95.5-74.2l4.3 10.3.8 2 1-.4 4.2-1.6v-.1l1.9-5.2-1.9-.8-10.3-4.2z"/><path id="Path_426" class="st2" d="M123.7-74.3L113.4-70l-2 .8.4.9.1.2 1.6 4.1 5.2 2 .8-2 4.2-10.3z"/><path id="Path_427" class="st2" d="M100.6-58.3L95.5-46l10.3-4.3 2-.8-2-5.2h-.1l-5.1-2z"/><path id="Path_428" class="st2" d="M118.6-58.4l-5.2 2-2 5.2 12.3 5.1-5.1-12.3z"/><path id="Path_430" class="st2" d="M134-74.2l4.3 10.3.8 2 1-.4 4.2-1.6v-.1l1.9-5.2-1.9-.8-10.3-4.2z"/><path id="Path_431" class="st2" d="M162.3-74.3L151.9-70l-2 .8.4.9 1.6 4.3 5.2 2 .8-2 4.4-10.3z"/><path id="Path_432" class="st2" d="M139.1-58.3L134-46l10.3-4.3 2-.8-2-5.2h-.1l-5.1-2z"/><path id="Path_433" class="st2" d="M157.1-58.4l-5.2 2-2 5.2 12.3 5.1-5.1-12.3z"/><path id="Path_435" class="st2" d="M188.8-68.2l1.6 4.3-1.6-4.1v-.2z"/><path id="Path_436" class="st2" d="M172.5-74.2l4.3 10.3.8 2 1-.4 4.2-1.6v-.1l1.9-5.2-1.9-.8-10.3-4.2z"/><path id="Path_437" class="st2" d="M200.8-74.3L190.5-70l-2 .8.4.9.1.2 1.6 4.1 5.2 2 .8-2 4.2-10.3z"/><path id="Path_438" class="st2" d="M177.7-58.3L172.6-46l10.3-4.3 2-.8-2-5.2h-.1l-5.1-2z"/><path id="Path_439" class="st2" d="M195.7-58.4l-5.2 2-2 5.2 12.3 5.1-5.1-12.3z"/><path id="Path_441" class="st2" d="M211.1-74.2l4.3 10.3.8 2 1-.4 4.2-1.6v-.1l1.9-5.2-1.9-.8-10.3-4.2z"/><path id="Path_442" class="st2" d="M239.3-74.3L229-70l-2 .8.4.9L229-64l5.2 2 .8-2 4.3-10.3z"/><path id="Path_443" class="st2" d="M216.2-58.3L211.1-46l10.3-4.3 2-.8-2-5.2h-.1l-5.1-2z"/><path id="Path_444" class="st2" d="M234.2-58.4l-5.2 2-2 5.2 12.3 5.1-5.1-12.3z"/><path id="Path_446" class="st2" d="M265.9-68.2l1.6 4.3-1.6-4.1v-.2z"/><path id="Path_447" class="st2" d="M249.6-74.2l4.3 10.3.8 2 1-.4 4.2-1.6v-.1l1.9-5.2-1.9-.8-10.3-4.2z"/><path id="Path_448" class="st2" d="M277.8-74.3L267.5-70l-2 .8.4.9.1.2 1.6 4.1 5.2 2 .8-2 4.2-10.3z"/><path id="Path_449" class="st2" d="M254.7-58.3L249.6-46l10.3-4.3 2-.8-2-5.2h-.1l-5.1-2z"/><path id="Path_450" class="st2" d="M272.7-58.4l-5.2 2-2 5.2 12.3 5.1-5.1-12.3z"/><path id="Path_452" class="st2" d="M57-34.1l4.3 10.3.8 2 1-.4 4.2-1.6v-.1l1.9-5.2-1.9-.8L57-34.1z"/><path id="Path_453" class="st2" d="M85.2-34.1l-10.3 4.3-2 .8.4.9 1.6 4.3 5.2 2 .8-2 4.3-10.3z"/><path id="Path_454" class="st2" d="M62.1-18.2L57-5.9l10.3-4.3 2-.8-2-5.2h-.1l-5.1-2z"/><path id="Path_455" class="st2" d="M80.1-18.2l-5.2 2-2 5.2 12.3 5.1-5.1-12.3z"/><path id="Path_457" class="st2" d="M111.8-28l1.6 4.3-1.6-4.1v-.2z"/><path id="Path_458" class="st2" d="M95.5-34.1l4.3 10.3.8 2 1-.4 4.2-1.6v-.1l1.9-5.2-1.9-.8-10.3-4.2z"/><path id="Path_459" class="st2" d="M123.7-34.1l-10.3 4.3-2 .8.4.9.1.2 1.6 4.1 5.2 2 .8-2 4.2-10.3z"/><path id="Path_460" class="st2" d="M100.6-18.2L95.5-5.9l10.3-4.3 2-.8-2-5.2h-.1l-5.1-2z"/><path id="Path_461" class="st2" d="M118.6-18.2l-5.2 2-2 5.2 12.3 5.1-5.1-12.3z"/><path id="Path_463" class="st2" d="M134-34.1l4.3 10.3.8 2 1-.4 4.2-1.6v-.1l1.9-5.2-1.9-.8-10.3-4.2z"/><path id="Path_464" class="st2" d="M162.3-34.1L152-29.8l-2 .8.4.9 1.6 4.3 5.2 2 .8-2 4.3-10.3z"/><path id="Path_465" class="st2" d="M139.1-18.2L134-5.9l10.3-4.3 2-.8-2-5.2h-.1l-5.1-2z"/><path id="Path_466" class="st2" d="M157.1-18.2l-5.2 2-2 5.2 12.3 5.1-5.1-12.3z"/><path id="Path_468" class="st2" d="M188.8-28l1.6 4.3-1.6-4.1v-.2z"/><path id="Path_469" class="st2" d="M172.5-34.1l4.3 10.3.8 2 1-.4 4.2-1.6v-.1l1.9-5.2-1.9-.8-10.3-4.2z"/><path id="Path_470" class="st2" d="M200.8-34.1l-10.3 4.3-2 .8.4.9.1.2 1.6 4.1 5.2 2 .8-2 4.2-10.3z"/><path id="Path_471" class="st2" d="M177.7-18.2l-5.1 12.3 10.3-4.3 2-.8-2-5.2h-.1l-5.1-2z"/><path id="Path_472" class="st2" d="M195.7-18.2l-5.2 2-2 5.2 12.3 5.1-5.1-12.3z"/><path id="Path_474" class="st2" d="M211.1-34.1l4.3 10.3.8 2 1-.4 4.2-1.6v-.1l2-5.2-1.9-.8-10.4-4.2z"/><path id="Path_475" class="st2" d="M239.3-34.1L229-29.8l-2 .8.4.9 1.6 4.3 5.2 2 .8-2 4.3-10.3z"/><path id="Path_476" class="st2" d="M216.2-18.2l-5.1 12.3 10.3-4.3 2-.8-2-5.2h-.1l-5.1-2z"/><path id="Path_477" class="st2" d="M234.2-18.2l-5.2 2-2 5.2 12.3 5.1-5.1-12.3z"/><path id="Path_479" class="st2" d="M265.9-28l1.6 4.3-1.6-4.1v-.2z"/><path id="Path_480" class="st2" d="M249.6-34.1l4.3 10.3.8 2 1-.4 4.2-1.6v-.1l1.9-5.2-1.9-.8-10.3-4.2z"/><path id="Path_481" class="st2" d="M277.8-34.1l-10.3 4.3-2 .8.4.9.1.2 1.6 4.1 5.2 2 .8-2 4.2-10.3z"/><path id="Path_482" class="st2" d="M254.7-18.2l-5.1 12.3 10.3-4.3 2-.8-2-5.2h-.1l-5.1-2z"/><path id="Path_483" class="st2" d="M272.7-18.2l-5.2 2-2 5.2 12.3 5.1-5.1-12.3z"/><path id="Path_485" class="st2" d="M57 6.1l4.3 10.3.8 2 1-.4 4.2-1.6v-.1l1.9-5.2-1.9-.8L57 6.1z"/><path id="Path_486" class="st2" d="M85.2 6.1l-10.3 4.3-2 .8.4.9 1.6 4.3 5.2 2 .8-2 4.3-10.3z"/><path id="Path_487" class="st2" d="M62.1 22L57 34.3 67.3 30l2-.8-2-5.2h-.1l-5.1-2z"/><path id="Path_488" class="st2" d="M80.1 22l-5.2 2-2 5.2 12.3 5.1L80.1 22z"/><path id="Path_490" class="st2" d="M111.8 12.1l1.6 4.3-1.6-4.1v-.2z"/><path id="Path_491" class="st2" d="M95.5 6.1l4.3 10.3.8 2 1-.4 4.2-1.6v-.1l1.9-5.2-1.9-.8-10.3-4.2z"/><path id="Path_492" class="st2" d="M123.7 6.1l-10.3 4.3-2 .8.4.9.1.2 1.6 4.1 5.2 2 .8-2 4.2-10.3z"/><path id="Path_493" class="st2" d="M100.6 22l-5.1 12.3 10.3-4.3 2-.8-2-5.2h-.1l-5.1-2z"/><path id="Path_494" class="st2" d="M118.6 22l-5.2 2-2 5.2 12.3 5.1-5.1-12.3z"/><path id="Path_496" class="st2" d="M134 6.1l4.3 10.3.8 2 1-.4 4.2-1.6v-.1l1.9-5.2-1.9-.8L134 6.1z"/><path id="Path_497" class="st2" d="M162.3 6.1L152 10.4l-2 .8.4.9 1.6 4.3 5.2 2 .8-2 4.3-10.3z"/><path id="Path_498" class="st2" d="M139.1 22L134 34.3l10.3-4.3 2-.8-2-5.2h-.1l-5.1-2z"/><path id="Path_499" class="st2" d="M157.1 22l-5.2 2-2 5.2 12.3 5.1-5.1-12.3z"/><path id="Path_501" class="st2" d="M188.8 12.1l1.6 4.3-1.6-4.1v-.2z"/><path id="Path_502" class="st2" d="M172.5 6.1l4.3 10.3.8 2 1-.4 4.2-1.6v-.1l1.9-5.2-1.9-.8-10.3-4.2z"/><path id="Path_503" class="st2" d="M200.8 6.1l-10.3 4.3-2 .8.4.9.1.2 1.6 4.1 5.2 2 .8-2 4.2-10.3z"/><path id="Path_504" class="st2" d="M177.7 22l-5.1 12.3 10.3-4.3 2-.8-2-5.2h-.1l-5.1-2z"/><path id="Path_505" class="st2" d="M195.7 22l-5.2 2-2 5.2 12.3 5.1-5.1-12.3z"/><path id="Path_507" class="st2" d="M211.1 6.1l4.3 10.3.8 2 1-.4 4.2-1.6v-.1l1.9-5.2-1.9-.8-10.3-4.2z"/><path id="Path_508" class="st2" d="M239.3 6.1L229 10.4l-2 .8.4.9 1.6 4.3 5.2 2 .8-2 4.3-10.3z"/><path id="Path_509" class="st2" d="M216.2 22l-5.1 12.3 10.3-4.3 2-.8-2-5.2h-.1l-5.1-2z"/><path id="Path_510" class="st2" d="M234.2 22l-5.2 2-2 5.2 12.3 5.1-5.1-12.3z"/><path id="Path_512" class="st2" d="M265.9 12.1l1.6 4.3-1.6-4.1v-.2z"/><path id="Path_513" class="st2" d="M249.6 6.1l4.3 10.3.8 2 1-.4 4.2-1.6v-.1l1.9-5.2-1.9-.8-10.3-4.2z"/><path id="Path_514" class="st2" d="M277.8 6.1l-10.3 4.3-2 .8.4.9.1.2 1.6 4.1 5.2 2 .8-2 4.2-10.3z"/><path id="Path_515" class="st2" d="M254.7 22l-5.1 12.3 10.3-4.3 2-.8-2-5.2h-.1l-5.1-2z"/><path id="Path_516" class="st2" d="M272.7 22l-5.2 2-2 5.2 12.3 5.1-5.1-12.3z"/><path id="Path_518" class="st2" d="M57 46.3l4.3 10.3.8 2 1-.4 4.2-1.6v-.1l1.9-5.2-1.9-.8L57 46.3z"/><path id="Path_519" class="st2" d="M85.2 46.3l-10.3 4.3-2 .8.4.9 1.6 4.3 5.2 2 .8-2 4.3-10.3z"/><path id="Path_520" class="st2" d="M62.1 62.2L57 74.5l10.3-4.3 2-.8-2-5.2h-.1l-5.1-2z"/><path id="Path_521" class="st2" d="M80.1 62.2l-5.2 2-2 5.2 12.3 5.1-5.1-12.3z"/><path id="Path_523" class="st2" d="M111.8 52.3l1.6 4.3-1.6-4.1v-.2z"/><path id="Path_524" class="st2" d="M95.5 46.3l4.3 10.3.8 2 1-.4 4.2-1.6v-.1l1.9-5.2-1.9-.8-10.3-4.2z"/><path id="Path_525" class="st2" d="M123.7 46.3l-10.3 4.3-2 .8.4.9.1.2 1.6 4.1 5.2 2 .8-2 4.2-10.3z"/><path id="Path_526" class="st2" d="M100.6 62.2l-5.1 12.3 10.3-4.3 2-.8-2-5.2h-.1l-5.1-2z"/><path id="Path_527" class="st2" d="M118.6 62.2l-5.2 2-2 5.2 12.3 5.1-5.1-12.3z"/><path id="Path_529" class="st2" d="M134 46.3l4.3 10.3.8 2 1-.4 4.2-1.6v-.1l1.9-5.2-1.9-.8-10.3-4.2z"/><path id="Path_530" class="st2" d="M162.3 46.3L152 50.6l-2 .8.4.9 1.6 4.3 5.2 2 .8-2 4.3-10.3z"/><path id="Path_531" class="st2" d="M139.1 62.2L134 74.5l10.3-4.3 2-.8-2-5.2h-.1l-5.1-2z"/><path id="Path_532" class="st2" d="M157.1 62.2l-5.2 2-2 5.2 12.3 5.1-5.1-12.3z"/><path id="Path_534" class="st2" d="M188.8 52.3l1.6 4.3-1.6-4.1v-.2z"/><path id="Path_535" class="st2" d="M172.5 46.3l4.3 10.3.8 2 1-.4 4.2-1.6v-.1l1.9-5.2-1.9-.8-10.3-4.2z"/><path id="Path_536" class="st2" d="M200.8 46.3l-10.3 4.3-2 .8.4.9.1.2 1.6 4.1 5.2 2 .8-2 4.2-10.3z"/><path id="Path_537" class="st2" d="M177.7 62.2l-5.1 12.3 10.3-4.3 2-.8-2-5.2h-.1l-5.1-2z"/><path id="Path_538" class="st2" d="M195.7 62.2l-5.2 2-2 5.2 12.3 5.1-5.1-12.3z"/><path id="Path_540" class="st2" d="M211.1 46.3l4.3 10.3.8 2 1-.4 4.2-1.6v-.1l1.9-5.2-1.9-.8-10.3-4.2z"/><path id="Path_541" class="st2" d="M239.3 46.3L229 50.5l-2 .8.4.9 1.6 4.3 5.2 2 .8-2 4.3-10.2z"/><path id="Path_542" class="st2" d="M216.2 62.2l-5.1 12.3 10.3-4.3 2-.8-2-5.2h-.1l-5.1-2z"/><path id="Path_543" class="st2" d="M234.2 62.2l-5.2 2-2 5.2 12.3 5.1-5.1-12.3z"/><path id="Path_545" class="st2" d="M265.9 52.3l1.6 4.3-1.6-4.1v-.2z"/><path id="Path_546" class="st2" d="M249.6 46.3l4.3 10.3.8 2 1-.4 4.2-1.6v-.1l1.9-5.2-1.9-.8-10.3-4.2z"/><path id="Path_547" class="st2" d="M277.8 46.3l-10.3 4.3-2 .8.4.9.1.2 1.6 4.1 5.2 2 .8-2 4.2-10.3z"/><path id="Path_548" class="st2" d="M254.7 62.2l-5.1 12.3 10.3-4.3 2-.8-2-5.2h-.1l-5.1-2z"/><path id="Path_549" class="st2" d="M272.7 62.2l-5.2 2-2 5.2 12.3 5.1-5.1-12.3z"/><path id="Path_551" class="st2" d="M57 86.5l4.3 10.3.8 2 1-.4 4.2-1.6v-.1l1.9-5.2-1.9-.8L57 86.5z"/><path id="Path_552" class="st2" d="M85.2 86.5l-10.3 4.3-2 .8.4.9 1.6 4.3 5.2 2 .8-2 4.3-10.3z"/><path id="Path_553" class="st2" d="M62.1 102.4L57 114.7l10.3-4.3 2-.8-2-5.2h-.1l-5.1-2z"/><path id="Path_554" class="st2" d="M80.1 102.3l-5.2 2-2 5.2 12.3 5.1-5.1-12.3z"/><path id="Path_556" class="st2" d="M111.8 92.5l1.6 4.3-1.6-4.1v-.2z"/><path id="Path_557" class="st2" d="M95.5 86.5l4.3 10.3.8 2 1-.4 4.2-1.6v-.1l1.9-5.2-1.9-.8-10.3-4.2z"/><path id="Path_558" class="st2" d="M123.7 86.5l-10.3 4.3-2 .8.4.9.1.2 1.6 4.1 5.2 2 .8-2 4.2-10.3z"/><path id="Path_559" class="st2" d="M100.6 102.4l-5.1 12.3 10.3-4.3 2-.8-2-5.2h-.1l-5.1-2z"/><path id="Path_560" class="st2" d="M118.6 102.3l-5.2 2-2 5.2 12.3 5.1-5.1-12.3z"/><path id="Path_562" class="st2" d="M134 86.5l4.3 10.3.8 2 1-.4 4.2-1.6v-.1l1.9-5.2-1.9-.8-10.3-4.2z"/><path id="Path_563" class="st2" d="M162.3 86.5L152 90.8l-2 .8.4.9 1.6 4.3 5.2 2 .8-2 4.3-10.3z"/><path id="Path_564" class="st2" d="M139.1 102.4l-5.1 12.3 10.3-4.3 2-.8-2-5.2h-.1l-5.1-2z"/><path id="Path_565" class="st2" d="M157.1 102.3l-5.2 2-2 5.2 12.3 5.1-5.1-12.3z"/><path id="Path_567" class="st2" d="M188.8 92.5l1.6 4.3-1.6-4.1v-.2z"/><path id="Path_568" class="st2" d="M172.5 86.5l4.3 10.3.8 2 1-.4 4.2-1.6v-.1l1.9-5.2-1.9-.8-10.3-4.2z"/><path id="Path_569" class="st2" d="M200.8 86.5l-10.3 4.3-2 .8.4.9.1.2 1.6 4.1 5.2 2 .8-2 4.2-10.3z"/><path id="Path_570" class="st2" d="M177.7 102.4l-5.1 12.3 10.3-4.3 2-.8-2-5.2h-.1l-5.1-2z"/><path id="Path_571" class="st2" d="M195.7 102.3l-5.2 2-2 5.2 12.3 5.1-5.1-12.3z"/><path id="Path_573" class="st2" d="M211.1 86.5l4.3 10.3.8 2 1-.4 4.2-1.6v-.1l1.9-5.2-1.9-.8-10.3-4.2z"/><path id="Path_574" class="st2" d="M239.3 86.5L229 90.7l-2 .8.4.9 1.6 4.3 5.2 2 .8-2 4.3-10.2z"/><path id="Path_575" class="st2" d="M216.2 102.4l-5.1 12.3 10.3-4.3 2-.8-2-5.2h-.1l-5.1-2z"/><path id="Path_576" class="st2" d="M234.2 102.3l-5.2 2-2 5.2 12.3 5.1-5.1-12.3z"/><path id="Path_578" class="st2" d="M265.9 92.5l1.6 4.3-1.6-4.1v-.2z"/><path id="Path_579" class="st2" d="M249.6 86.5l4.3 10.3.8 2 1-.4 4.2-1.6v-.1l1.9-5.2-1.9-.8-10.3-4.2z"/><path id="Path_580" class="st2" d="M277.8 86.5l-10.3 4.3-2 .8.4.9.1.2 1.6 4.1 5.2 2 .8-2 4.2-10.3z"/><path id="Path_581" class="st2" d="M254.7 102.4l-5.1 12.3 10.3-4.3 2-.8-2-5.2h-.1l-5.1-2z"/><path id="Path_582" class="st2" d="M272.7 102.3l-5.2 2-2 5.2 12.3 5.1-5.1-12.3z"/><path id="Path_584" class="st2" d="M57 126.7l4.3 10.3.8 2 1-.4 4.2-1.6v-.1l1.9-5.2-1.9-.8-10.3-4.2z"/><path id="Path_585" class="st2" d="M85.2 126.6l-10.3 4.3-2 .8.4.9 1.6 4.3 5.2 2 .8-2 4.3-10.3z"/><path id="Path_586" class="st2" d="M62.1 142.6L57 154.9l10.3-4.3 2-.8-2-5.2h-.1l-5.1-2z"/><path id="Path_587" class="st2" d="M80.1 142.5l-5.2 2-2 5.2 12.3 5.1-5.1-12.3z"/><path id="Path_589" class="st2" d="M111.8 132.7l1.2 3.1-1.1-2.9-.1-.2z"/><path id="Path_590" class="st2" d="M95.5 126.7l4.3 10.3.8 2 1-.4 4.2-1.6v-.1l1.9-5.2-1.9-.8-10.3-4.2z"/><path id="Path_591" class="st2" d="M123.7 126.6l-10.3 4.3-2 .8.4.9.1.2 1.1 2.9.5 1.2 5.2 2 .8-2 4.2-10.3z"/><path id="Path_592" class="st2" d="M100.6 142.6l-5.1 12.3 10.3-4.3 2-.8-2-5.2h-.1l-5.1-2z"/><path id="Path_593" class="st2" d="M118.6 142.5l-5.2 2-2 5.2 12.3 5.1-5.1-12.3z"/><path id="Path_595" class="st2" d="M134 126.7l4.3 10.3.8 2 1-.4 4.2-1.6v-.1l1.9-5.2-1.9-.8-10.3-4.2z"/><path id="Path_596" class="st2" d="M162.3 126.6l-10.3 4.3-2 .8.4.9 1.6 4.3 5.2 2 .8-2 4.3-10.3z"/><path id="Path_597" class="st2" d="M139.1 142.6l-5.1 12.3 10.3-4.3 2-.8-2-5.2h-.1l-5.1-2z"/><path id="Path_598" class="st2" d="M157.1 142.5l-5.2 2-2 5.2 12.3 5.1-5.1-12.3z"/><path id="Path_600" class="st2" d="M188.8 132.7l1.2 3.1-1.1-2.9-.1-.2z"/><path id="Path_601" class="st2" d="M172.5 126.7l4.3 10.3.8 2 1-.4 4.2-1.6v-.1l1.9-5.2-1.9-.8-10.3-4.2z"/><path id="Path_602" class="st2" d="M200.8 126.6l-10.3 4.3-2 .8.4.9.1.2 1.1 2.9.5 1.2 5.2 2 .8-2 4.2-10.3z"/><path id="Path_603" class="st2" d="M177.7 142.6l-5.1 12.3 10.3-4.3 2-.8-2-5.2h-.1l-5.1-2z"/><path id="Path_604" class="st2" d="M195.7 142.5l-5.2 2-2 5.2 12.3 5.1-5.1-12.3z"/><path id="Path_606" class="st2" d="M211.1 126.7l4.3 10.3.8 2 1-.4 4.2-1.6v-.1l1.9-5.2-1.9-.8-10.3-4.2z"/><path id="Path_607" class="st2" d="M239.3 126.6l-10.3 4.3-2 .8.4.9 1.6 4.3 5.2 2 .8-2 4.3-10.3z"/><path id="Path_608" class="st2" d="M216.2 142.6l-5.1 12.3 10.3-4.3 2-.8-2-5.2h-.1l-5.1-2z"/><path id="Path_609" class="st2" d="M234.2 142.5l-5.2 2-2 5.2 12.3 5.1-5.1-12.3z"/><path id="Path_611" class="st2" d="M265.9 132.7l1.2 3.1-1.1-2.9-.1-.2z"/><path id="Path_612" class="st2" d="M249.6 126.7l4.3 10.3.8 2 1-.4 4.2-1.6v-.1l1.9-5.2-1.9-.8-10.3-4.2z"/><path id="Path_613" class="st2" d="M277.8 126.6l-10.3 4.3-2 .8.4.9.1.2 1.1 2.9.5 1.2 5.2 2 .8-2 4.2-10.3z"/><path id="Path_614" class="st2" d="M254.7 142.6l-5.1 12.3 10.3-4.3 2-.8-2-5.2h-.1l-5.1-2z"/><path id="Path_615" class="st2" d="M272.7 142.5l-5.2 2-2 5.2 12.3 5.1-5.1-12.3z"/></g></g></svg>