<?xml version="1.0" encoding="utf-8"?>
<!-- Generator: Adobe Illustrator 27.9.0, SVG Export Plug-In . SVG Version: 6.00 Build 0)  -->
<svg version="1.1" id="Layer_1" xmlns="http://www.w3.org/2000/svg" xmlns:xlink="http://www.w3.org/1999/xlink" x="0px" y="0px"
	 viewBox="0 0 375 187.5" style="enable-background:new 0 0 375 187.5;" xml:space="preserve">
<style type="text/css">
	.st0{display:none;}
	.st1{fill:#FFFFFF;}
	.st2{fill:#001D34;}
	.st3{fill:#03AE5F;}
	.st4{fill:#21A1DB;}
</style>
<g id="DESIGN_1">
	<g>
		<g>
			<path class="st1" d="M109.3,110.6h-25l-3.9,11.5H59.6l27.7-70.5h19l28.3,70.5h-21.4L109.3,110.6z M96.8,73.6l-7.7,21.8h15.5
				L96.8,73.6z"/>
			<path class="st1" d="M197.4,77.1c0,14.8-11.1,25.5-26.1,25.5h-10.5v19.5h-19.5V51.6h30C186.3,51.6,197.4,62.3,197.4,77.1z
				 M177.5,77.1c0-5-3.4-8.5-8.5-8.5h-8.2v17.1h8.2C174.1,85.7,177.5,82.1,177.5,77.1z"/>
			<path class="st1" d="M274.6,122.1l-5.5-40.6l-18.7,40.7h-5.8L226,81.5l-5.4,40.5h-19.7l10.7-70.5H231l16.6,38.3l16.7-38.3h19.4
				l10.5,70.5L274.6,122.1L274.6,122.1z"/>
			<path class="st1" d="M359.9,77.1c0,14.8-11.1,25.5-26.1,25.5h-10.5v19.5h-19.5V51.6h30C348.7,51.6,359.9,62.3,359.9,77.1z
				 M339.9,77.1c0-5-3.4-8.5-8.5-8.5h-8.2v17.1h8.2C336.6,85.7,339.9,82.1,339.9,77.1z"/>
		</g>
		<g>
			<path class="st1" d="M31.8,122.1c10.3,18.6,28.8,32,51.2,36.2c6.1,1.2,12.5,1.6,19.1,1.3c8.5-0.4,16.8-2,24.6-4.7l-7.9-14.3
				c-7.7,2.7-16,4.4-24.6,4.8c-30.8,1.4-57.1-13.9-70.2-37.6L31.8,122.1L31.8,122.1z"/>
			<path class="st1" d="M42.5,24.9l3.9,6.9C32.3,46.3,23.4,65.5,23,86.2c-0.3,13.1,2.9,25.4,8.8,35.9l-7.9-14.3
				c-5.8-10.5-9-22.7-8.8-35.9c0.4-20.7,9.3-39.9,23.3-54.4L42.5,24.9L42.5,24.9z"/>
		</g>
		<path class="st1" d="M39.4,139.3c8.5,19.5,25.6,34.7,47.4,41l-3.2-7.5c-21.9-6.4-39-21.5-47.4-41L39.4,139.3L39.4,139.3z"/>
		<g>
			<path class="st1" d="M39.6,137.2c10.4,18.5,28.9,31.9,51.3,36l-6.3-11.3c-22.4-4.1-43-21.2-53.4-39.7L39.6,137.2L39.6,137.2z"/>
			<path class="st1" d="M89.9,7.2l1.6,13.2l-2.6,1.1C55,32.3,29.7,63.3,29.2,98.7c-0.2,13.1,3.1,25.4,8.9,35.9l-8.4-15
				c-5.9-10.5-7-24.6-6.9-37.8C22.9,81.7,28.6,29.7,89.9,7.2z"/>
		</g>
		<path class="st1" d="M142.4,31.7c-7.6-2.3-15.8-3.5-24.3-3.3c-44.5,0.5-82.4,35.5-84.6,78.1c-0.7,13.1,2.1,25.4,7.6,36.2l-3.7-7.3
			c-5.5-10.8-8.3-23.1-7.6-36.2c2.2-42.5,40.1-77.5,84.6-78.1c8.5-0.1,16.7,1.1,24.3,3.3L142.4,31.7L142.4,31.7z"/>
	</g>
</g>
</svg>
